<svg id="Layer_1" data-name="Layer 1" xmlns="http://www.w3.org/2000/svg" viewBox="0 0 335.97 256.16">
  <defs>
    <style>
      .cls-1 {
        fill: #a37e2b;
      }

      .cls-2 {
        font-size: 59px;
        font-family: CircularSpotifyText, -apple-system, BlinkMacSystemFont, sans-serif;
      }
    </style>
  </defs>
  <g>
    <polygon class="cls-1" points="84.08 114.57 3.02 70.24 163.61 249.97 84.08 114.57"/>
    <polygon class="cls-1" points="86.45 112.83 251.43 113 219.21 53.7 117.33 53.7 86.45 112.83"/>
    <polygon class="cls-1" points="116.94 51.7 219.6 51.7 294.44 20.43 228.43 0 116.86 0 44.75 19.25 116.94 51.7"/>
    <polygon class="cls-1" points="0 66.31 84.39 112.46 115.35 53.18 42.02 20.21 0 66.31"/>
    <polygon class="cls-1" points="251.73 115 86.55 114.83 169.56 256.16 251.73 115"/>
    <polygon class="cls-1" points="297.08 21.49 221.21 53.2 253.68 112.95 335.97 67.06 297.08 21.49"/>
    <polygon class="cls-1" points="254.01 115.06 175.58 249.79 332.93 71.05 254.01 115.06"/>
  </g>
  <path d="M857.43,310.34l15.64,6.14-.53.95-1.82-.78a2.65,2.65,0,0,0-2-.1,3.14,3.14,0,0,0-1.59,1.45,3.64,3.64,0,0,0-.43,1.11q-.1.56-.33,2.76l-1.24,14.91,11.67-7.7A10.1,10.1,0,0,0,880,326a4.82,4.82,0,0,0,.67-3.38,3.18,3.18,0,0,0-1.88-2.3l-1.6-.73.56-1,12.55,6-.54,1a9.25,9.25,0,0,0-2.64-.4,8.84,8.84,0,0,0-2.56.42,15.54,15.54,0,0,0-3,1.31,37.93,37.93,0,0,0-3.45,2.14l-13.24,8.77-5.15,8c-1.3,2-1.9,3.62-1.81,5a4.16,4.16,0,0,0,2.38,3.33l1.64,1-.6.89L844,346.41l.6-.83,1.71.87a5,5,0,0,0,4.3.39,9.43,9.43,0,0,0,4-3.71l4.58-7,1.41-17.32a11.09,11.09,0,0,0-.42-5,4.59,4.59,0,0,0-2.83-2.38l-.44-.16Z" transform="translate(-800.54 -271.5)"/>
  <text class="cls-2" transform="translate(147.89 101.2) scale(0.69 1)">M</text>
  <path d="M1077.43,357.74l.69-.38a4.26,4.26,0,0,0,2.47-3.37q.2-2.1-1.69-5.26l-1.55-2.65-1.31-2.29c-.42-.73-1-1.83-1.88-3.32-3.43-6.21-6-10.92-7.58-14a21.8,21.8,0,0,0-2-2.77,6.18,6.18,0,0,0-1.83-1.48,4.15,4.15,0,0,0-4-.18l-.69.3-.54-1.09,15.56-6.16.54,1-.69.25a3.37,3.37,0,0,0-2.47,3c-.13,1.44.44,3.37,1.7,5.75l11.88,21a9.87,9.87,0,0,0,3.9,4,4.85,4.85,0,0,0,4.28-.22l.69-.34.57.89L1078,358.69Z" transform="translate(-800.54 -271.5)"/>
</svg>
